<svg width="340" height="340" viewBox="0 0 340 340" fill="none" xmlns="http://www.w3.org/2000/svg">
<path d="M170 340C263.888 340 340 263.888 340 170C340 76.1116 263.888 0 170 0C76.1119 0 0 76.1116 0 170C0 263.888 76.1119 340 170 340Z" fill="url(#paint0_linear_44_203)"/>
<path d="M170.001 329C257.813 329 329 257.813 329 170C329 82.1866 257.813 11 170.001 11C82.1871 11 11 82.1866 11 170C11 257.813 82.1871 329 170.001 329Z" fill="url(#paint1_linear_44_203)"/>
<path d="M90.1519 262.317C57.3581 192.507 131.95 166.728 210.451 161.836C308.492 236.914 176.638 221.862 90.1519 262.317Z" fill="#101012"/>
<path d="M156.588 156.379C158.457 155.062 216.227 119.122 181.226 73.3969C161.921 48.1789 136.368 42.9139 141.466 56.65C136.756 51.2607 138.834 46.6378 142.825 42.9139C157.947 28.8012 315.288 70.9507 332.959 155.626C326.531 141.015 311.89 116.864 305.093 121.003C298.295 125.143 304.058 131.729 310.021 146.406C315.957 161.022 317.783 166.804 323.877 191.074C323.939 191.243 323.966 191.347 323.954 191.378C323.928 191.276 323.901 191.175 323.877 191.074C322.419 187.133 301.321 147.517 296.597 151.486C291.669 155.626 313.079 196.835 312.23 233.903C304.508 211.941 278.246 114.606 219.796 149.605C161.346 184.604 133.48 173.502 133.48 173.502C133.48 173.502 154.719 157.696 156.588 156.379Z" fill="#101012"/>
<path d="M143.504 44.4189C140.101 46.7571 138.577 51.1929 139.597 54.2038C136.878 48.5587 139.767 45.3598 142.825 42.9137C145.421 40.8377 155.058 37.4567 182.075 43.6662C210.244 50.1407 239.676 62.6711 252.081 69.6334C229.131 59.2325 202.543 52.2748 182.075 47.4296C163.291 42.9832 149.928 40.0068 143.504 44.4189Z" fill="white"/>
<path d="M235.427 102.939C208.708 78.664 151.151 35.7632 141.296 47.4296C147.564 33.3528 205.693 74.5257 232.03 96.7295C277.197 134.809 313.428 213.994 309.34 216.404C296.088 179.523 262.444 127.483 235.427 102.939Z" fill="url(#paint2_linear_44_203)"/>
<path d="M239.677 101.81C212.955 77.5351 153.189 36.3278 142.145 46.3008C148.413 32.2239 211.88 74.6486 237.637 97.6705C280.795 136.245 308.161 198.375 304.074 200.786C290.821 163.905 266.691 126.354 239.677 101.81Z" fill="url(#paint3_linear_44_203)"/>
<path d="M290.34 97.8208C255.414 69.3228 213.051 55.0605 169.501 45.9243C222.489 56.3869 255.968 68.0812 290.34 97.8208C299.294 105.126 307.758 113.367 315.628 122.697C306.955 113.2 298.622 104.987 290.34 97.8208Z" fill="url(#paint4_linear_44_203)"/>
<path d="M172.22 48.3705C226.593 62.2948 251.06 75.0902 286.911 102.751C241.825 71.7088 216.734 60.5302 172.22 48.3705Z" fill="#37383C"/>
<path d="M295.748 115.923C271.789 82.2407 193.46 53.4511 184.793 53.4511C225.339 66.7924 277.593 100.314 294.388 130.976C290.821 122.32 285.892 117.24 277.057 106.326C283.684 110.278 286.742 114.417 295.748 124.39C288.273 111.987 281.45 105.274 268.731 94.2833C280.735 102.318 286.655 107.431 295.748 115.923Z" fill="url(#paint5_linear_44_203)"/>
<path d="M177.317 51.9457C233.39 73.773 268.723 92.8474 305.772 151.486C269.24 99.8324 240.332 78.7739 177.317 51.9457Z" fill="url(#paint6_linear_44_203)"/>
<path d="M177.658 54.2036C233.39 76.0311 266.862 96.7295 303.733 153.368C266.182 100.116 239.506 81.1115 177.658 54.2036Z" fill="url(#paint7_linear_44_203)"/>
<path d="M177.148 54.5799C231.35 78.2891 272.298 112.348 285.892 143.207C269.411 113.288 235.768 81.8642 177.148 54.5799Z" fill="url(#paint8_linear_44_203)"/>
<path d="M183.774 58.3434C236.951 84.7492 274.596 119.6 286.911 151.11C270.941 120.627 241.216 88.5425 183.774 58.3434Z" fill="url(#paint9_linear_44_203)"/>
<path d="M193.798 65.8702C244.773 91.6491 270.261 123.638 286.755 154.497C268.051 124.955 244.944 95.036 193.798 65.8702Z" fill="url(#paint10_linear_44_203)"/>
<path d="M163.384 166.54C159.856 166.327 157.504 166.16 154.889 167.481C157.437 159.578 165.253 156.379 171.88 150.169C168.253 156.264 166.222 159.683 163.384 166.54Z" fill="#34322F"/>
<path d="M165.763 166.916C175.448 158.072 182.585 152.803 194.818 147.723C181.735 150.169 173.579 156.191 165.763 166.916Z" fill="#454545"/>
<path d="M208.922 113.288C210.111 126.084 206.373 127.401 188.361 144.712C195.159 136.621 205.643 127.126 204.333 114.982C202.975 102.375 197.054 90.7082 186.153 73.9612C192.609 81.488 207.668 99.8101 208.922 113.288Z" fill="#302E2F"/>
<path d="M181.735 135.68C176.438 143.84 174.039 148.49 170.69 156.943C170.69 156.943 172.353 148.107 175.618 143.207C177.625 140.196 181.735 135.68 181.735 135.68Z" fill="white"/>
<path d="M202.294 114.605C203.052 123.826 199.406 130.411 184.454 145.653C192.78 136.433 198.727 124.955 198.727 114.605C198.727 101.6 193.289 86.5685 186.662 75.6547C194.309 86.7566 201.337 102.939 202.294 114.605Z" fill="#454545"/>
<path d="M173.919 155.061C185.133 146.406 190.911 143.395 203.144 140.384C192.006 140.181 185.646 142.607 173.919 155.061Z" fill="#454545"/>
<path d="M175.618 150.546C188.702 131.917 197.367 118.745 193.46 100.681C197.876 118.745 200.256 123.638 175.618 150.546Z" fill="url(#paint11_linear_44_203)"/>
<path d="M179.696 70.7625C199.791 93.3426 202.294 122.132 162.195 156.567C164.404 148.664 184.919 135.94 190.74 115.735C194.872 101.398 190.571 82.9824 179.696 70.7625Z" fill="white"/>
<path d="M207.222 96.9177C217.164 116.069 222.62 126.784 196.518 139.444C207.632 136.479 216.399 132.858 218.097 123.826C219.796 114.794 207.222 96.9177 207.222 96.9177Z" fill="#39393B"/>
<path d="M210.96 139.632C220.474 134.74 223.912 128.616 220.474 116.675C227.611 132.293 227.273 136.057 210.96 139.632Z" fill="#39393B"/>
<path d="M172.39 168.986C177.78 159.93 181.703 155.44 190.74 149.228C182.585 153.744 177.148 157.884 172.39 168.986Z" fill="#454545"/>
<path d="M81.3164 73.7732C81.3164 73.7732 84.3744 73.585 83.0152 78.4773C86.9236 77.5366 85.904 69.6336 79.6172 67.7519C47.1635 74.5259 5.70452 215.652 34.9297 267.962C28.4731 244.441 27.1528 210.841 29.3225 210.383C31.3524 209.955 32.9934 237.476 39.0076 254.602C43.7653 268.151 53.4503 284.521 60.2468 286.214C45.6343 269.467 37.9882 234.844 40.7067 233.528C42.0423 232.881 47.6517 247.346 57.5282 262.694C67.7562 278.587 75.1993 287.343 89.9817 291.295C78.0878 275.489 71.9709 264.576 67.5532 250.086C82.4673 267.327 83.6144 264.847 103.664 271.685C70.3392 230.457 87.7198 201.575 120.396 149.792C88.2829 166.54 44.7848 98.4232 81.3164 73.7732Z" fill="#101012"/>
<path d="M58.8875 140.196C64.7553 173.502 63.815 183.851 86.7533 202.103C62.6257 186.674 62.7158 177.185 58.8875 140.196Z" fill="#494C57"/>
<path d="M51.5812 166.164C56.5639 195.465 58.6929 212.528 71.9708 233.903C54.2998 213.581 51.5812 189.684 51.5812 166.164Z" fill="#494C57"/>
<path d="M78.9373 155.814C87.2631 162.4 90.9461 166.27 96.269 171.808C88.5957 168.348 85.0326 164.131 78.9373 155.814Z" fill="url(#paint12_linear_44_203)"/>
<path d="M87.0929 148.288C94.3999 154.497 100.516 155.626 104.764 158.449C98.1372 157.884 91.3409 157.132 87.0929 148.288Z" fill="url(#paint13_linear_44_203)"/>
<path d="M112.24 156.191L116.149 152.804C87.9423 159.766 62.1158 118.933 67.0434 97.6704C61.606 108.584 76.7285 155.25 112.24 156.191Z" fill="url(#paint14_linear_44_203)"/>
<path d="M78.2575 67.5636C83.1901 67.5636 86.2434 72.2678 84.7139 76.7838C85.5643 72.0797 82.6603 69.0397 79.447 68.6926C65.5141 67.1874 48.7079 107.484 39.8571 134.175C28.8128 167.481 26.094 212.075 25.4143 228.823C21.8462 149.04 61.0963 67.5636 78.2575 67.5636Z" fill="white"/>
<path d="M45.1244 178.582C44.8594 117.415 69.352 67.4553 80.4668 70.7625C66.7035 64.1767 43.5012 124.066 43.935 178.582C44.273 221.045 57.3583 248.581 79.1071 280.757C76.2186 273.983 45.3755 236.547 45.1244 178.582Z" fill="#59585D"/>
<path d="M42.5758 176.823C44.2749 112.724 68.2328 74.2258 72.6505 73.0205C60.9264 76.2192 40.197 130.976 40.197 176.823C40.197 219.288 52.7767 246.821 74.5255 278.998C63.3053 258.365 41.3264 223.956 42.5758 176.823Z" fill="url(#paint15_linear_44_203)"/>
<path d="M47.3334 236.914C34.0801 187.991 37.9882 144.148 56.3388 96.1652C39.5172 135.304 27.1135 197.588 47.3334 236.914Z" fill="url(#paint16_linear_44_203)"/>
<path d="M38.1581 239.548C29.4924 188.555 36.9686 146.97 54.2998 98.7994C36.4588 135.68 22.6958 206.243 38.1581 239.548Z" fill="url(#paint17_linear_44_203)"/>
<path d="M103.235 207.56C86.838 203.648 78.0123 203.789 63.4752 211.7L76.5586 190.625C89.098 196.995 94.1298 200.755 102.944 207.343L103.235 207.56Z" fill="#101012"/>
<path d="M65.0045 204.926L63.3052 211.7C63.3052 211.7 63.815 213.958 67.3832 215.84C68.187 216.264 70.9514 216.592 70.9514 216.592C70.9514 216.592 67.1489 213.001 68.4026 210.572C69.0823 209.254 74.0098 210.572 74.0098 210.572C74.0098 210.572 69.1169 202.635 71.4611 200.41C73.8399 198.152 77.578 201.163 77.578 201.163C77.578 201.163 77.7126 198.484 79.4471 197.588C81.9955 196.27 98.647 204.173 98.647 204.173L76.3885 188.556L73.3302 195.894L65.0045 194.953V204.926Z" fill="#1B1B1D"/>
<path d="M72.4806 209.63C70.6115 206.62 69.7619 205.867 68.7424 203.985L66.5425 205.114C66.4126 206.709 67.5531 208.313 72.4806 209.63Z" fill="#3E3F43"/>
<path d="M63.645 209.442C63.9848 213.393 66.8734 215.651 68.5727 215.651C68.2328 210.195 65.5141 209.066 63.645 209.442Z" fill="#3E3F43"/>
<path d="M78.2575 203.42C78.2575 203.42 75.8788 198.905 75.709 195.141C75.6878 194.671 75.709 193.636 76.3886 193.448C77.0682 193.259 77.3723 193.823 77.4081 194.2C77.7479 197.776 78.2575 203.42 78.2575 203.42Z" fill="white"/>
<path d="M68.626 204.008C68.6082 204 68.5904 203.992 68.5726 203.985C68.5895 203.989 68.6074 203.997 68.626 204.008C71.3004 205.198 72.0089 211.504 77.7479 210.383C72.5778 214.263 69.5448 204.574 68.626 204.008Z" fill="white"/>
<path d="M67.3832 212.642C65.8539 217.722 71.521 217.533 75.0892 216.217C69.312 216.217 68.0628 215.463 67.3832 212.642Z" fill="white"/>
<path d="M68.2326 200.41C67.3832 198.528 67.723 197.964 67.8928 196.284C66.7143 195.906 64.931 197.431 65.0608 197.775C65.0608 197.775 64.4946 200.598 65.8539 201.727C66.4312 201.256 66.8734 200.598 68.2326 200.41Z" fill="#3E3F43"/>
<path d="M68.2328 201.127C67.471 200.911 66.3637 201.727 66.0239 202.856C66.0239 203.797 66.2052 203.733 66.7036 204.55C67.3832 203.797 67.553 203.797 68.4027 203.797C68.0254 202.764 68.134 202.156 68.2328 201.127Z" fill="#3E3F43"/>
<path d="M63.4752 199.469C62.9654 197.776 63.0528 195.109 64.4946 194.577C66.0239 194.012 72.7324 196.397 73.3301 194.577C74.0097 192.507 72.9903 187.803 75.3691 187.615C77.748 187.427 81.6559 193.956 89.8114 197.211L91.5111 199.093C84.205 195.329 78.5627 191.067 76.3886 192.319C72.1408 194.765 74.6894 197.587 74.1798 198.152C73.9292 198.429 72.9106 196.968 71.2912 196.27C69.5921 195.894 66.7035 195.518 65.1742 197.023C63.645 198.528 65.5141 201.074 65.5141 203.797C65.5141 206.808 64.3248 207.56 63.9849 210.572C63.7998 212.21 65.1742 214.334 65.1742 214.334C65.1742 214.334 62.7193 212.147 62.6255 210.383C62.4557 207.184 64.3298 207.886 64.4946 205.491C64.6732 202.894 64.3415 202.348 63.4752 199.469Z" fill="#D9D9D9"/>
<path d="M79.447 151.675C76.6965 151.216 75.1992 153.933 75.1992 153.933C72.1408 149.793 70.6425 147.315 69.0823 140.385C72.3348 134.76 74.8594 131.509 74.8594 125.143C74.8594 90.8964 109.182 63.424 100.686 43.1019L100.739 43.2019C105.279 51.8319 107.625 56.2921 93.8901 90.8964H96.4383C123.72 54.6753 125.269 45.2894 122.265 33.1291C128.043 41.7847 127.533 58.1554 111.901 84.3106C117.944 74.4553 128.453 72.6264 143.674 71.327C139.936 74.9022 133.986 76.4076 131.781 79.6065C147.395 80.3658 152.769 79.7091 156.758 76.7839C153.121 79.7661 151.025 81.4421 149.282 84.3106C159.986 89.7674 165.423 94.2835 173.579 100.117C168.394 99.1111 166.059 98.935 162.875 99.3641C167.122 102.375 171.031 106.891 174.429 113.288C171.303 112.131 170.083 111.025 167.972 111.407C171.467 115.923 172.762 119.481 175.279 129.283C171.824 124.208 170.011 121.756 166.443 117.993C168.098 128.147 168.742 134.519 168.481 144.524C166.346 138.575 165.183 135.552 163.725 135.68C163.118 141.494 162.449 144.748 160.326 150.546C159.761 148.171 159.518 146.854 158.796 146.03C158.796 146.03 156.769 152.428 155.058 155.814C151.544 162.776 142.825 172.749 142.825 172.749C122.037 193.356 174.259 211.888 180.037 236.727C79.447 243.689 81.1461 193.636 104.594 167.293C122.904 144.558 127.023 140.385 130.421 133.611C133.819 126.837 129.062 116.676 122.265 115.735C115.469 114.794 114.28 118.745 114.28 118.745L125.664 124.39C119.467 124.998 116.231 125.68 110.542 127.015C111.148 129.329 112.921 130.6 117.508 134.542C113.007 134.458 111.221 134.363 105.954 132.481C105.585 133.29 105.555 134.018 106.803 135.68C100.551 133.828 96.5287 133.97 94.3999 136.057C92.2702 138.143 92.3948 139.644 90.3212 142.266C87.6779 145.611 82.7364 149.867 82.5053 149.605C82.8106 150.753 83.7285 151.062 85.2238 151.675C83.3728 152.051 82.1971 152.133 79.447 151.675Z" fill="url(#paint18_linear_44_203)"/>
<path d="M115.808 90.3321C125.834 82.6171 130.251 81.1117 145.034 82.4289C130.082 82.6389 123.965 86.1923 115.808 90.3321Z" fill="url(#paint19_linear_44_203)"/>
<path d="M111.391 88.8265C113.778 76.2398 124.092 74.913 141.466 71.8915C132.291 75.8429 118.867 73.585 111.391 88.8265Z" fill="url(#paint20_linear_44_203)"/>
<path d="M127.703 82.8054C130.761 76.2194 149.962 81.4882 156.758 76.784C154.04 84.1226 130.591 79.2302 127.703 82.8054Z" fill="white"/>
<path d="M146.053 84.4986C155.909 85.8158 163.794 91.8124 173.41 99.7404C167.802 97.6704 158.457 89.3912 146.053 84.4986Z" fill="white"/>
<path d="M111.561 89.7676C114.79 83.5581 117.975 77.7356 135.349 74.7141C126.173 78.6657 120.396 79.042 111.561 89.7676Z" fill="url(#paint21_linear_44_203)"/>
<path d="M122.265 88.4502C130.109 84.6763 133.975 84.3091 140.786 83.9343C134.669 87.8857 130.421 89.5792 122.265 88.4502Z" fill="#3C3D3C"/>
<path d="M123.964 171.245C124.302 175.573 116.659 185.169 115.299 193.636C112.089 186.566 120.735 173.505 123.964 171.245ZM137.729 166.727C135.519 173.878 131.47 178.247 126.003 186.298C126.003 177.266 130.762 176.512 137.729 166.727ZM132.63 160.895C131.781 167.48 128.979 170.712 124.985 174.631C124.325 170.751 126.173 168.045 132.63 160.895ZM144.647 156.706C143.188 159.553 142.016 160.885 141.446 163.913C142.808 161.571 143.369 160.795 145.059 159.412C144.752 161.288 144.315 162.143 142.93 164.847C145.517 161.393 145.663 161.107 148.111 158.883C145.675 166.194 142.354 166.93 139.893 167.265C139.348 163.537 141.688 159.927 144.647 156.706ZM140.655 154.384C140.243 159.583 137.364 161.873 134.132 163.02C133.955 159.632 135.255 157.745 137.258 154.384C135.846 157.763 135.162 158.677 135.049 161.015C136.948 157.144 138.386 156.484 140.655 154.384ZM149.31 145.37C149.045 148.631 148.7 149.237 149.31 152.257C149.678 149.5 149.987 149.022 150.909 147.66C151.33 149.51 151.371 149.703 151.371 152.257C152.44 147.926 151.879 148.915 153.279 145.768C153.787 153.544 151.037 155.733 148.918 157.165C147.032 154.018 147.818 149.658 149.31 145.37ZM144.524 144.901C144.996 149.83 141.91 151.835 139.086 153.557C138.363 150.435 139.257 147.535 141.977 144.901C140.616 148.099 139.936 149.416 139.936 151.486C141.903 147.704 142.755 147.317 144.524 144.901ZM155.676 131.728C157.035 140.571 153.977 143.394 151.598 145.276C149.05 141.889 149.559 136.809 150.918 131.728C150.918 135.492 150.408 137.562 151.428 140.949C151.598 137.75 151.768 136.621 152.787 134.175C153.467 136.245 153.467 137.374 153.467 140.949C154.316 135.868 154.316 135.492 155.676 131.728ZM147.798 133.169C148.338 138.798 146.627 142.224 143.402 144.191C142.577 140.626 143.705 137.21 145.203 133.169C144.338 137.092 144.014 139.068 144.014 141.89C145.713 137.562 145.778 135.929 147.798 133.169ZM158.966 125.896C160.665 128.154 161.672 136.367 159.816 140.76C157.101 136.189 156.758 132.932 157.267 126.46C157.777 130.788 157.493 131.089 159.306 135.492C159.986 130.788 159.815 131.164 158.966 125.896ZM148.941 120.25C150.3 125.707 149.456 129.396 146.563 131.917C145.714 128.53 145.339 126.389 146.224 122.133C145.947 126.159 146.217 127.8 146.902 130.223C147.508 125.492 147.354 123.337 148.941 120.25ZM155.398 117.051C157.777 122.132 155.908 129.094 153.529 130.976C150.981 127.589 150.3 122.884 150.64 117.804C152 121.379 151.999 123.45 153.019 126.837C152.634 123.784 152.85 122.32 153.019 119.686C153.699 121.944 153.868 122.697 154.208 126.46C154.548 120.439 154.888 120.626 155.398 117.051ZM154.718 110.089C156.703 112.615 158.138 116.353 161.347 124.202C160.448 120.009 159.659 117.661 158.117 113.476C160.691 118.736 162.864 121.408 162.024 127.965C159.646 121.191 156.247 116.863 154.718 110.089ZM156.248 108.772C160.21 112.685 161.479 115.141 163.044 120.814C160.64 115.225 159.063 112.902 156.248 108.772ZM146.224 110.655C147.414 112.16 149.225 115.368 148.092 119.498C146.117 117.1 145.882 116.299 145.033 112.724C145.713 113.665 146.053 114.042 147.243 116.112C147.243 114.042 146.564 112.536 146.224 110.655ZM146.393 107.267C151.32 109.525 153.699 112.724 152.51 117.992C149.792 117.051 148.092 110.09 146.902 108.961C149.053 110.856 149.962 111.783 151.49 115.17C150.981 111.783 149.791 110.654 146.393 107.267ZM150.981 97.4824C160.156 99.1761 162.571 105.659 162.024 111.971C156.029 106.476 153.53 103.691 150.472 98.9876C154.379 100.761 155.568 101.435 160.835 108.961C158.456 103.88 157.778 102.186 150.981 97.4824ZM144.524 98.9876C150.81 98.9876 152.862 104.298 152.339 108.397C149.021 107.574 146.664 104.282 144.014 99.7404C145.959 100.374 147.806 101.099 150.53 105.321C149.846 102.587 147.412 100.493 144.524 98.9876ZM137.729 100.493C142.655 100.493 144.3 104.555 143.844 108.208C140.945 107.475 139.702 104.916 137.387 100.868C139.087 101.433 140.107 102.375 142.485 106.139C141.888 103.702 139.937 101.622 137.729 100.493ZM129.571 93.2087C132.63 90.3863 142.145 89.7678 147.752 93.5859C145.034 93.5861 142.824 101.434 129.401 94.15C132.993 93.6319 132.46 92.5556 144.694 93.2087C140.149 92.1488 137.047 91.2723 129.571 93.2087ZM142.554 88.3711C148.268 86.034 159.038 92.6512 158.816 93.9336C155.309 96.3871 147.832 92.228 142.191 88.9185C149.016 88.3978 153.179 92.2844 156.541 93.2144C152.064 90.5309 147.837 88.1283 142.554 88.3711Z" fill="url(#paint22_linear_44_203)"/>
<path d="M111.221 191.189C111.092 206.105 102.216 208.312 99.3271 211.888C97.7006 208.559 97.5969 203.085 97.8214 203.044C102.826 197.606 106.643 197.179 111.221 191.189ZM118.527 174.256C115.808 186.486 103.914 189.496 97.7976 199.093C96.9482 193.825 97.8451 190.943 98.9866 186.486C106.738 181.189 111.04 178.41 118.527 174.256ZM127.703 162.211C126.854 171.62 101.535 180.087 100.176 181.216L104.255 171.809L127.703 162.211ZM135.179 151.299C133.14 162.964 112.751 163.717 107.313 168.421L112.751 160.142C123.115 157.132 126.174 153.557 135.179 151.299ZM142.316 138.502C141.467 148.663 125.325 151.487 116.489 157.32C119.184 153.457 121.44 150.775 127.023 144.901C133.331 144.875 136.113 140.801 142.316 138.502ZM145.204 127.965C141.126 135.868 139.087 139.256 129.742 141.137C130.082 138.691 130.149 138.234 131.101 136.433C137.387 135.68 140.045 132.048 145.204 127.965ZM144.694 119.498C143.675 124.955 142.994 127.778 133.48 132.106C133.819 129.66 133.14 129.47 132.63 127.777C139.257 126.46 139.767 125.331 144.694 119.498Z" fill="url(#paint23_linear_44_203)"/>
<path d="M98.1372 178.582C98.647 181.781 98.4777 183.286 99.3261 186.297C98.3074 191.189 97.458 193.259 97.6283 198.716L93.3802 189.307L98.1372 178.582ZM104.934 166.351C104.934 166.351 105.476 170.587 104.425 172.372C101.876 176.7 102.555 180.464 100.177 181.217C100.199 178.2 99.6343 176.594 97.6283 174.443C100.177 173.502 101.663 170.094 104.934 166.351ZM112.58 156.755C112.58 156.755 113.994 158.908 113.26 159.955C111.718 162.154 109.181 165.224 107.143 168.422C107.143 168.422 106.962 164.882 106.803 164.093C106.645 163.306 104.942 163.716 104.934 163.718C108.163 161.272 109.522 159.389 112.58 156.755ZM121.399 149.04C121.891 149.729 121.651 150.791 121.399 151.487C120.718 153.368 117.659 155.451 115.452 158.261C115.445 158.249 113.987 156.001 114.263 155.25C114.54 154.497 118.12 151.007 121.399 149.04ZM126.854 140.948C128.081 141.967 128.552 144.147 127.534 145.652C126.524 147.143 123.936 150.113 123.115 153.179C122.945 150.733 123.388 149.517 122.774 147.158C121.215 148.083 120.397 148.587 119.206 149.793C120.736 145.841 124.376 144.415 126.854 140.948ZM131.27 133.233C131.78 133.233 132.291 135.292 132.12 135.868C130.441 138.8 130.023 140.325 129.741 143.772C129.194 142.959 128.977 142.821 127.702 139.443C127.01 139.947 126.744 140.294 126.344 140.948C126.584 138.22 130.926 133.239 131.27 133.233ZM131.782 127.212C133.478 126.745 134.159 133.046 133.649 134.363C132.629 133.422 132.461 133.045 131.61 131.728L131.107 132.394C130.709 132.905 130.549 133.046 129.913 133.61C130.422 132.105 131.102 127.4 131.782 127.212ZM130.761 121.379C132.29 123.073 132.524 124.116 132.971 125.707C132.241 125.367 131.831 125.242 131.102 125.707C131.271 124.014 131.101 123.073 130.761 121.379Z" fill="url(#paint24_linear_44_203)"/>
<path d="M97.9678 202.856C94.8859 201.915 92.9845 196.67 91.6804 194.953C93.4924 200.826 95.6764 207.609 99.327 211.888C98.2769 208.547 98.1381 206.808 97.9678 202.856Z" fill="#3E3E40"/>
<path d="M91.6804 195.141C91.6804 195.141 96.4383 207.748 99.3271 211.888C95.7858 208.701 91.3409 195.329 91.6804 195.141Z" fill="#D7D7D7"/>
<path d="M177.317 213.017C176.128 208.501 185.813 204.173 186.664 192.695C180.206 195.33 177.487 197.023 170.521 208.501C167.167 214.028 158.66 214.153 157.778 213.581C155.738 212.265 150.641 211.888 148.262 212.642L148.224 212.653C145.863 213.399 143.992 213.992 139.936 220.167C139.936 220.167 143.674 215.518 145.883 216.836C147.545 217.826 144.014 222.481 144.014 222.481C144.014 222.481 148.543 218.612 150.471 218.661C152.349 218.711 150.471 223.367 150.471 223.367C150.471 223.367 155.073 219.582 156.588 219.792C157.947 219.979 159.477 222.049 159.477 222.049C159.477 222.049 163.045 217.722 165.423 217.156C167.802 216.592 172.56 213.958 176.128 210.759C176.688 211.897 176.68 212.723 177.317 213.017Z" fill="#1B1B1D"/>
<path d="M202.294 172.373C199.406 185.356 194.309 199.093 179.527 204.173C174.259 194.201 175.448 178.206 186.153 172.373C192.202 169.076 198.556 170.868 202.294 172.373Z" fill="#1B1B1D"/>
<path d="M176.807 200.41C176.807 200.41 174.259 205.302 169.842 209.63C165.423 213.958 161.856 216.027 159.986 216.027C158.117 216.027 157.268 214.522 154.379 214.899C151.49 215.276 150.131 214.899 150.131 214.899C149.962 213.77 153.02 212.64 153.53 212.64C154.04 212.64 157.354 214.009 158.797 214.522C163.554 216.217 174.938 201.727 176.807 200.41Z" fill="#6F7174"/>
<path d="M151.321 215.086C147.922 208.878 141.466 216.592 138.407 222.049C144.618 215.384 147.922 212.265 149.792 215.086H151.321Z" fill="#A8ABAC"/>
<path d="M150.131 214.522C146.903 217.533 142.642 222.988 142.995 227.506C144.355 222.049 147.073 220.356 151.83 215.086C151.83 215.086 150.599 214.086 150.131 214.522Z" fill="#EBECED"/>
<path d="M155.058 216.781C152.06 218.995 149.111 222.99 148.942 227.317C152.85 220.356 154.379 218.663 155.738 218.097C157.179 217.499 158.117 217.345 158.457 216.404C157.246 216.298 156.078 216.027 155.058 216.781Z" fill="#EBECED"/>
<path d="M159.305 224.857L159.306 224.872C159.769 222.53 159.816 222.318 161.006 220.544C162.28 218.644 163.666 216.853 164.914 216.217C166.163 215.579 166.613 216.217 167.802 215.84C168.571 215.596 169.615 214.622 168.822 214.522C164.629 213.997 163.045 215.463 160.326 219.415C158.866 221.208 158.967 222.047 159.305 224.857Z" fill="#A8ABAC"/>
<path d="M176.468 196.835C178.227 188.054 181.906 185.921 190.74 184.039C186.833 191.002 183.506 192.786 176.468 196.835Z" fill="#6D6B6C"/>
<path d="M173.41 205.114C177.148 199.093 180.837 195.106 187.513 191.942C181.226 199.093 178.264 203.164 173.41 205.114Z" fill="#8E8E8E"/>
<path d="M196.178 178.394C194.923 188.244 191.56 193.231 184.964 199.093C190.927 192.149 193.573 188.109 196.178 178.394Z" fill="#373737"/>
<path d="M197.537 182.158C196.518 192.507 191.221 196.054 184.624 201.915C190.587 194.971 195.329 192.507 197.537 182.158Z" fill="#373737"/>
<path d="M180.037 186.297C184.284 178.959 188.29 178.434 194.309 177.454C191.931 179.147 193.29 184.039 180.037 186.297Z" fill="#444242"/>
<path d="M190.4 171.997C186.833 173.126 180.158 179.402 177.658 187.803C182.648 179.74 189.891 177.077 194.989 176.136C200.086 175.196 201.614 172.561 201.614 172.561C201.614 172.561 193.969 170.868 190.4 171.997Z" fill="#6D6B6C"/>
<path d="M113.43 191.754C113.401 208.611 116.334 215.175 128.213 220.356C117.451 209.592 115.002 203.266 113.43 191.754Z" fill="#2B2A2D"/>
<path d="M118.528 207.749C118.528 198.905 121.536 190.585 124.814 182.346C117.677 189.12 114.318 196.707 118.528 207.749Z" fill="#2B2A2D"/>
<path d="M125.285 189.685C117.495 201.351 122.422 211.324 136.185 214.522C127.519 206.808 124.461 202.856 125.285 189.685Z" fill="#2B2A2D"/>
<path d="M133.309 203.985C129.161 190.597 132.41 184.888 141.466 175.76C126.479 188.388 124.134 194.577 133.309 203.985Z" fill="#5D5D60"/>
<path d="M140.446 180.276C129.062 187.803 130.931 206.808 146.393 206.808C131.951 203.609 132.97 188.367 140.446 180.276Z" fill="url(#paint25_linear_44_203)"/>
<path d="M137.388 193.071C138.997 201.672 141.504 204.65 151.661 203.421C142.939 202.86 140.011 200.372 137.388 193.071Z" fill="url(#paint26_linear_44_203)"/>
<path d="M160.157 169.362C139.597 170.491 132.291 192.13 142.655 199.845C135.179 183.287 148.833 172.561 160.157 169.362Z" fill="#5D5D60"/>
<path d="M143.674 196.835C138.067 191.754 143.674 173.126 157.947 174.819C150.641 178.018 144.025 187.32 143.674 190.813C143.165 195.894 148.432 200.222 153.869 195.706C153.869 195.706 149.282 201.915 143.674 196.835Z" fill="url(#paint27_linear_44_203)"/>
<path d="M143.845 190.813C145.204 184.604 156.078 172.937 160.836 177.83C155.909 185.733 149.621 190.061 143.845 190.813Z" fill="url(#paint28_linear_44_203)"/>
<path d="M155.909 186.109C152.51 189.685 148.602 191.378 144.354 192.131C144.354 192.131 144.594 197.793 151.321 196.647C155.738 195.894 155.909 186.109 155.909 186.109Z" fill="url(#paint29_linear_44_203)"/>
<path d="M185.133 172.373C179.017 178.394 163.926 193.17 161.229 186.297C159.53 181.97 165.221 178.133 168.142 177.265C175.109 175.196 184.114 172.373 184.114 172.373C178.057 176.168 174.545 178.173 168.142 181.593C169.947 182.078 175.169 178.696 185.133 172.373Z" fill="url(#paint30_linear_44_203)"/>
<path d="M177.827 174.067C174.159 174.588 168.651 176.668 168.482 175.572C168.312 174.476 171.554 174.105 177.827 172.938C177.827 172.938 184.454 172.185 190.74 169.927C195.329 168.279 203.655 172.373 203.655 172.373C203.655 172.373 195.121 169.549 191.251 170.868C184.624 173.126 177.827 174.067 177.827 174.067Z" fill="url(#paint31_linear_44_203)"/>
<path d="M69.422 140.384C69.422 140.384 71.4144 147.477 73.8397 151.298C74.5191 152.368 75.0292 153.556 75.0292 153.556C75.5422 152.42 74.6816 149.778 78.4274 147.346C83.3547 144.148 87.7102 138.811 88.9619 129.659C90.6617 117.24 85.7336 109.713 85.7336 109.713C85.7336 109.713 79.277 113.1 77.068 120.627C74.8592 128.154 69.422 140.384 69.422 140.384Z" fill="url(#paint32_linear_44_203)"/>
<path d="M86.7533 140.573C84.0491 145.564 77.0681 148.664 77.0681 148.664C77.0681 148.664 82.5025 145.656 85.2238 140.949C86.7771 138.262 89.8599 132.341 91.8508 130.035C95.1894 126.169 101.366 127.213 101.366 127.213C101.366 127.213 95.4187 127.213 91.8508 131.729C90.2337 133.775 89.3016 135.868 86.7533 140.573Z" fill="url(#paint33_linear_44_203)"/>
<path d="M68.9124 140.196C72.3352 133.721 73.4567 130.381 75.0291 124.579C75.0898 129.952 74.1751 133.391 71.1211 140.196C70.6115 145.089 74.5194 150.169 75.5389 154.497C71.2027 149.343 69.9121 145.711 68.9124 140.196Z" fill="white"/>
<path d="M71.6308 142.454C71.6308 136.997 79.2768 126.46 76.0486 124.202C76.7283 128.53 71.2909 137.75 71.6308 142.454Z" fill="url(#paint34_linear_44_203)"/>
<path d="M71.8008 143.96C71.8008 138.691 77.7477 130.976 78.2576 126.648C77.2379 129.847 70.4416 139.255 71.8008 143.96Z" fill="url(#paint35_linear_44_203)"/>
<path d="M72.4805 143.96C72.1406 138.879 78.2575 133.046 78.952 128.718C77.9176 132.105 70.6113 138.691 72.4805 143.96Z" fill="url(#paint36_linear_44_203)"/>
<path d="M72.6503 144.9C72.6503 139.067 76.0486 139.632 77.5779 133.234C76.5582 136.433 70.9512 138.503 72.6503 144.9Z" fill="url(#paint37_linear_44_203)"/>
<path d="M74.5194 145.653C74.4649 142.423 75.199 141.137 77.2379 139.067C76.0486 141.514 75.199 142.078 74.5194 145.653Z" fill="#5A5A5B"/>
<path d="M74.6893 145.841C75.6302 144.218 76.148 143.215 76.5583 141.325C76.5583 143.96 76.0487 144.336 74.6893 145.841Z" fill="#5A5A5B"/>
<path d="M86.5831 128.342C91.6805 123.638 93.2101 123.073 93.2101 123.073C93.2101 123.073 91.8508 124.202 87.9424 128.342C86.3044 130.078 82.3009 132.147 81.4857 135.304C80.8168 137.897 79.3246 144.32 78.1436 145.058C78.1211 145.083 78.1024 145.093 78.0876 145.089C78.1062 145.08 78.1248 145.07 78.1436 145.058C78.5572 144.6 80.2137 139.308 80.8062 135.492C81.3392 132.061 84.8843 129.91 86.5831 128.342Z" fill="url(#paint38_linear_44_203)"/>
<path d="M90.831 119.498C90.4258 120.635 89.1322 122.697 89.1322 122.697C89.1322 122.697 90.9147 122.005 91.6804 120.627C92.2635 119.578 92.5955 117.428 93.0397 116.299C94.0061 113.847 98.6726 109.936 100.516 108.208C102.725 106.138 106.633 103.692 110.371 101.058C114.11 98.4232 127.023 91.8373 127.362 83.1816C121.245 93.5308 118.866 93.1545 104.594 103.504C104.594 103.504 98.8106 108.127 97.1175 109.713C94.9088 111.783 93.0397 113.1 91.6804 116.299C91.221 117.381 91.2277 118.385 90.831 119.498Z" fill="url(#paint39_linear_44_203)"/>
<path d="M106.973 107.831C117.741 100.532 123.455 96.165 127.193 87.3213C122.096 96.9177 109.862 104.068 106.973 107.831Z" fill="#696869"/>
<path d="M101.365 105.197C103.816 100.624 107.653 98.9876 112.58 95.2243C108.673 99.9284 105.203 101.155 101.365 105.197Z" fill="#7D7A79"/>
<path d="M85.394 127.025C83.3423 129.393 82.5052 132.294 82.5052 132.294C82.5052 132.294 83.7732 129.805 85.9039 127.589C88.5862 124.798 90.2479 124.993 92.8704 122.132C95.7667 118.971 96.8292 115.183 99.4964 111.783C102.991 107.33 110.032 102.563 110.032 102.563C110.032 102.563 101.843 106.68 98.647 111.595C95.5889 116.299 94.8916 118.769 91.6804 122.132C89.3662 124.557 87.5998 124.479 85.394 127.025Z" fill="#575757"/>
<path d="M88.4521 124.39C73.4998 131.917 81.3162 138.126 76.7283 146.029C76.7283 146.029 79.4468 144.336 79.9566 134.551C80.2079 129.727 84.4371 127.058 88.4521 124.39Z" fill="url(#paint40_linear_44_203)"/>
<path d="M109.691 108.208C119.318 106.048 127.494 103.303 135.859 98.4232C127.496 105.274 119.206 107.644 109.691 108.208Z" fill="url(#paint41_linear_44_203)"/>
<path d="M93.8892 123.073C96.9482 119.122 98.8173 113.62 100.856 112.159C97.9679 114.229 95.9285 118.557 93.8892 123.073Z" fill="#575757"/>
<path d="M103.575 112.348C99.9453 113.855 97.2877 119.686 97.2877 119.686C97.2877 119.686 100.098 114.974 103.575 113.477C109.691 110.842 116.934 110.511 122.606 107.455C128.892 104.068 136.383 98.4351 136.028 98.2351C135.948 97.893 127.872 103.504 122.945 106.138C116.116 109.789 109.012 110.09 103.575 112.348Z" fill="url(#paint42_linear_44_203)"/>
<path d="M98.4777 119.874C102.596 113.481 109.253 113.599 118.527 111.595C108.07 112.508 100.981 111.939 98.4777 119.874Z" fill="url(#paint43_linear_44_203)"/>
<path d="M101.026 118.933C101.026 118.933 101.152 118.729 101.418 118.436C102.437 117.119 102.733 116.597 104.254 115.923C105.953 115.17 110.76 115.277 113.6 114.229C122.265 111.03 134.669 100.681 134.669 100.681C134.669 100.681 124.134 111.03 114.789 114.794C112.039 115.901 107.082 115.841 104.254 116.676C102.816 117.1 101.893 117.91 101.418 118.436C101.298 118.591 101.169 118.756 101.026 118.933Z" fill="url(#paint44_linear_44_203)"/>
<path d="M101.196 119.498C106.405 117.335 113.6 122.253 119.037 123.073C113.09 123.073 107.653 119.498 101.196 119.498Z" fill="url(#paint45_linear_44_203)"/>
<path d="M97.458 123.449C100.793 120.462 104.084 121.191 109.352 124.202C104.594 119.686 100.686 118.933 97.458 123.449Z" fill="#2E2D2F"/>
<path d="M98.3074 123.449C101.054 123.571 103.065 124.202 106.123 125.143C103.235 125.143 101.536 124.578 98.3074 123.449Z" fill="#2E2D2F"/>
<path d="M110.371 124.955C108.842 125.519 107.72 126.535 106.633 126.837C106.633 126.837 108.853 124.576 110.371 124.202C113.429 123.45 117.507 124.579 117.507 124.579C117.507 124.579 111.901 124.39 110.371 124.955Z" fill="#2E2D2F"/>
<path d="M99.8369 129.094C104.766 128.478 107.276 129.22 111.391 132.105C107.095 130.289 104.594 129.539 99.8369 129.094Z" fill="#2E2D2F"/>
<path d="M96.9777 132.058C99.1654 131.258 101.822 131.223 104.284 132.058C102.007 131.94 99.3461 131.957 96.9777 132.058Z" fill="#2E2D2F"/>
<path d="M81.8262 148.852C85.5634 145.841 88.6224 142.831 92.021 138.126C89.4718 143.207 86.0732 146.218 81.8262 148.852Z" fill="#48474A"/>
<path d="M81.6559 149.793C82.297 150.881 83.1359 151.366 84.2041 151.486C82.7117 151.754 81.9232 151.187 81.6559 149.793Z" fill="#48474A"/>
<path d="M78.0876 119.874C78.0876 115.358 85.0536 111.407 86.2435 102.375C82.5053 106.702 75.0291 115.17 78.0876 119.874Z" fill="#565457"/>
<path d="M78.0876 111.595C76.8982 114.605 77.4421 117.579 77.5778 118.181C77.7261 117.282 79.728 110.728 81.9955 108.02C86.1199 103.094 91.2725 92.3257 91.0014 91.2727C91.0014 91.2727 79.2769 108.584 78.0876 111.595Z" fill="white"/>
<path d="M74.3494 125.708C74.3494 123.826 78.7672 117.052 77.238 110.842C74.1632 118.142 72.5107 122.538 74.3494 125.708Z" fill="#383C42"/>
<path d="M72.6503 120.439C72.3058 122.78 74.3495 125.708 74.3495 125.708C74.3495 125.708 73.3237 123.993 74.5194 120.815C75.3689 118.557 76.1854 115.955 76.8982 113.1C77.7516 109.682 78.5973 104.068 78.5973 104.068C78.9371 106.138 78.9371 107.079 78.9371 108.961C78.9371 108.961 79.7169 104.383 80.9762 101.246C82.3351 97.8587 85.7337 93.1546 85.7337 93.1546L84.3744 92.0256H83.0152C83.0152 92.0256 79.1638 98.6074 77.408 103.504C75.7447 108.142 76.1847 111.365 74.3495 115.923C73.7088 117.514 72.9033 118.72 72.6503 120.439Z" fill="white"/>
<path d="M86.9236 91.2727H83.1854C86.2435 82.617 104.425 66.0582 100.177 42.7254C103.915 48.1823 103.763 57.8926 96.7779 72.2678H96.2681V73.7732L91.3409 82.617H90.6618L89.9817 83.7459L91.0014 83.9342V84.4986H89.6421L86.0732 89.391H86.9236V91.2727Z" fill="white"/>
<path d="M85.2238 94.6598C81.8252 101.434 80.9761 102.563 79.1071 108.584C79.1071 108.584 79.8257 103.336 80.8062 100.869C82.0211 97.8125 85.2238 94.6598 85.2238 94.6598Z" fill="#383C42"/>
<path d="M101.196 89.9557C97.6274 100.305 92.1904 101.622 87.6028 111.971C86.857 108.218 95.8943 87.3234 104.594 80.171L103.405 84.3106C109.589 75.1353 113.002 70.3785 119.037 62.295C112.409 72.0466 108.85 77.4917 103.065 87.133L100.516 87.3213L103.405 88.074L99.837 89.203L101.196 89.9557Z" fill="#565457"/>
<path d="M79.7629 125.219C79.3078 118.003 84.2897 115.238 85.6804 110.977C87.0463 118.003 81.1285 120.851 79.7629 125.219Z" fill="#565457"/>
<path d="M77.9574 124.571C77.1462 117.385 83.7704 111.984 85.2571 107.74C85.5814 113.792 79.0929 119.087 77.9574 124.571Z" fill="white"/>
<path d="M100.006 82.8052C85.2238 104.444 87.6027 111.971 87.6027 111.971C88.2828 109.713 88.9715 106.345 91.0013 101.058C90.1338 104.93 90.3041 107.47 89.8114 110.842C92.3035 101.821 93.8901 95.0361 100.006 90.1437L97.9678 89.0147L102.215 88.074L99.4964 87.3213C99.4964 87.3213 117.813 66.9992 122.775 50.8167C125.834 40.8439 121.586 32 121.586 32C121.586 32 123.887 43.1752 120.736 52.3221C116.578 64.3962 107.047 72.4995 100.006 82.8052Z" fill="white"/>
<path d="M92.6003 107.459C92.5661 107.47 92.5423 107.469 92.5309 107.455C92.5537 107.457 92.5775 107.458 92.6003 107.459C93.1434 107.291 96.3737 104.23 97.9679 102.187C98.2123 102.731 95.4463 107.586 92.6003 107.459Z" fill="#3F3E3E"/>
<path d="M96.2681 106.326C99.9254 103.924 101.875 92.7783 101.875 92.7783C101.875 92.7783 99.4964 102.187 96.2681 106.326Z" fill="#3F3E3E"/>
<path d="M82.1934 125.866C82.1934 120.975 84.4144 119.021 88.9582 118.098C88.6986 123.276 86.7676 125.553 82.1934 125.866Z" fill="#237272"/>
<path d="M82.8087 125.219C82.8087 121.55 84.4238 120.085 87.7283 119.393C87.539 123.277 86.135 124.984 82.8087 125.219Z" fill="#4CFFE1"/>
<path d="M259.555 230.141C210.418 300.975 110.175 200.635 100.006 292.236C78.8113 266.341 100.951 229.766 156.3 227.177C211.649 224.587 202.899 221.32 211.19 197.691C220.24 171.902 178.337 165.599 178.337 165.599L219.796 146.406C228.802 142.831 237.919 144.188 243.413 146.406C240.414 147.922 239.036 148.984 237.468 151.486C245.931 152.964 250.662 153.75 258.877 154.497C256.372 155.473 255.162 156.053 254.287 157.319C263.209 159.135 268.196 160.167 274.508 164.093C271.259 164.825 269.185 165.143 265.162 165.599C265.673 168.421 278.077 177.265 280.964 188.932C277.059 186.782 275.065 185.785 273.15 185.733C276.314 194.592 278.417 199.657 279.606 209.63C276.377 206.996 275.521 204.2 274.508 204.173C272.268 217.412 271.45 226.376 267.031 230.141C265.457 227.969 265.288 226.164 265.162 222.801C264.261 228.078 263.815 231.042 261.255 236.162C260.189 233.829 259.897 232.506 259.555 230.141Z" fill="#101012"/>
<path d="M203.824 156.567C199.067 159.013 197.198 161.083 194.649 165.411C194.806 165.401 196.348 165.411 196.348 165.411C196.445 164.915 200.619 158.609 203.824 156.567Z" fill="url(#paint46_linear_44_203)"/>
<path d="M186.662 159.201C181.905 161.647 179.527 163.341 176.978 167.669C177.135 167.659 179.017 167.669 179.017 167.669C179.112 167.173 183.459 161.243 186.662 159.201Z" fill="url(#paint47_linear_44_203)"/>
<path d="M202.635 150.169C199.396 152.912 197.482 154.346 195.159 158.072H192.269C194.989 154.309 198.601 152.349 202.635 150.169Z" fill="url(#paint48_linear_44_203)"/>
<path d="M211.98 149.605C207.902 151.486 202.125 154.309 198.727 157.884H199.745C204.844 154.873 207.393 152.803 211.98 149.605Z" fill="url(#paint49_linear_44_203)"/>
<path d="M218.436 147.911C213.341 149.416 209.431 152.803 204.504 156.19H206.882C210.451 152.615 213.169 151.486 218.436 147.911Z" fill="url(#paint50_linear_44_203)"/>
<path d="M212.66 146.029C208.476 148.76 206.292 150.342 203.655 153.556H202.466C204.844 149.605 208.626 148.209 212.66 146.029Z" fill="url(#paint51_linear_44_203)"/>
<path d="M212.15 153.744C217.588 150.734 222.684 149.04 228.971 147.346C222.344 150.357 219.285 151.298 212.15 153.744Z" fill="#373637"/>
<path d="M217.588 153.368C227.611 154.685 234.069 146.029 240.354 145.653C234.579 144.148 227.442 152.051 217.588 153.368Z" fill="#656361"/>
<path d="M220.305 154.497C226.422 154.121 233.729 154.121 233.729 154.121C228.77 155.04 226.253 156.379 220.305 154.497Z" fill="#474447"/>
<path d="M229.48 156.755C235.938 154.497 243.244 156.567 251.229 156.002C249.871 157.696 236.957 157.32 229.48 156.755Z" fill="#3B3B3B"/>
<path d="M232.03 158.072C235.259 161.271 241.375 161.083 247.491 159.389C243.924 156.19 234.238 158.072 232.03 158.072Z" fill="#626261"/>
<path d="M189.483 226.764L211.64 229.199C203.715 230.983 189.483 231.082 189.483 226.764Z" fill="url(#paint52_linear_44_203)"/>
<path d="M176.807 238.419C184.38 232.063 190.315 232.152 200.597 231.646C193.246 237.014 188.896 239.703 176.807 238.419Z" fill="url(#paint53_linear_44_203)"/>
<path d="M167.802 252.909C172.05 250.838 186.833 243.839 193.46 238.232C188.871 244.254 172.56 252.343 167.802 252.909Z" fill="#302E33"/>
<path d="M153.869 235.973C164.254 237.573 173.41 236.914 181.396 233.716C169.227 233.494 157.607 232.587 153.869 235.973Z" fill="#6A6B6F"/>
<path d="M175.448 227.13L189.891 231.457C185.14 233.371 177.658 230.892 175.448 227.13Z" fill="url(#paint54_linear_44_203)"/>
<path d="M154.209 229.764C163.779 232.176 170.829 232.445 182.755 233.339C167.559 237.454 161.346 234.467 154.209 229.764Z" fill="white"/>
<path d="M155.738 248.016C166.783 245.57 174.586 246.257 180.716 242.746C169.752 242.587 164.525 244.182 155.738 248.016Z" fill="#666166"/>
<path d="M165.933 238.796C172.323 238.959 182.585 233.716 182.585 233.716C182.585 233.716 173.579 236.537 165.933 238.796Z" fill="#666166"/>
<path d="M164.234 242.371C168.151 241.447 171.922 240.109 175.958 240.489C174.939 242.748 172.56 243.123 164.234 242.371Z" fill="#666166"/>
<path d="M144.864 244.441C151.83 239.925 158.627 237.101 161.516 240.302C162.705 243.687 153.189 241.995 144.864 244.441Z" fill="#807C7F"/>
<path d="M132.46 245.757C138.917 244.441 150.471 239.548 152.34 237.101C145.204 239.548 140.956 241.995 132.46 245.757Z" fill="#807C7F"/>
<path d="M117.338 239.548C124.612 235.605 133.947 235.965 150.641 235.598C139.597 238.607 132.684 236.403 117.338 239.548Z" fill="#CECECE"/>
<path d="M107.992 255.918C119.19 242.457 136.538 235.032 152 236.914C135.178 238.984 122.39 243.04 107.992 255.918Z" fill="#FEFBFE"/>
<path d="M105.274 258.929C100.232 266.568 98.0982 271.376 96.0988 281.321C95.6355 270.653 97.7966 265.83 105.274 258.929Z" fill="#4C4F53"/>
<path d="M98.8172 288.097C98.8172 254.225 121.076 244.818 150.131 236.914C117.677 239.737 90.3212 264.199 98.8172 288.097Z" fill="#494746"/>
<path d="M139.766 241.618C143.335 237.291 148.772 236.35 152.34 237.291C146.393 238.607 145.204 238.984 139.766 241.618Z" fill="#A69FA4"/>
<path d="M156.248 232.775C142.43 230.194 136.133 229.997 128.552 232.775C139.903 232.206 145.556 232.839 155.399 234.28C154.379 233.471 153.25 233.172 151.661 232.775C152.577 232.604 153.864 232.759 156.248 232.775Z" fill="white"/>
<path d="M103.686 250.948C111.526 242.65 114.79 241.807 122.265 242.559C113.939 243.687 111.528 245.433 103.686 250.948Z" fill="white"/>
<path d="M96.4384 260.811C101.026 250.838 114.79 247.452 114.79 247.452C113.26 250.838 102.046 252.909 96.4384 260.811Z" fill="white"/>
<path d="M105.954 256.295C97.4581 260.811 95.0221 266.106 94.0594 277.746C96.8902 267.759 99.1569 262.504 105.954 256.295Z" fill="white"/>
<path d="M226.933 183.287C220.268 182.063 209.771 176.701 208.242 172.749C206.713 168.798 209.601 165.599 214.869 167.481C220.137 169.362 225.893 177.199 226.933 183.287Z" fill="url(#paint55_linear_44_203)"/>
<path d="M230.031 189.033C226.632 185.457 216.778 172.098 218.136 169.651C219.496 167.205 223.914 168.335 227.821 171.721C231.729 175.108 229.84 182.84 230.031 189.033Z" fill="url(#paint56_linear_44_203)"/>
<path d="M237.609 199.373C233.049 194.577 226.564 177.545 227.755 174.535C228.944 171.524 236.59 177.734 238.459 181.309C240.328 184.884 236.689 191.47 237.609 199.373Z" fill="url(#paint57_linear_44_203)"/>
<path d="M197.537 158.449C191.167 159.248 187.64 160.552 181.565 166.916L188.022 168.421C193.027 165.488 194.733 163.024 197.537 158.449Z" fill="url(#paint58_linear_44_203)"/>
<path d="M202.294 166.164C200.992 165.913 198.353 165.373 198.217 165.223C204.292 157.207 208.776 155.876 217.757 156.379C212.469 160.786 209.233 163.044 202.294 166.164Z" fill="url(#paint59_linear_44_203)"/>
<path d="M210.451 164.094C218.892 156.548 222.446 155.466 227.102 158.072C222.004 162.024 219.397 167.37 210.451 164.094Z" fill="#605D5E"/>
<path d="M222.004 164.282C229.387 156.378 233.441 160.505 240.015 164.282C237.976 165.787 222.004 166.728 222.004 164.282Z" fill="#676968"/>
<path d="M220.646 165.599C221.326 165.034 224.384 166.916 228.122 166.916C225.742 169.362 219.626 166.163 220.646 165.599Z" fill="#4C4C4C"/>
<path d="M247.832 178.771C241.375 175.572 235.267 175.54 228.802 168.798C229.002 166.898 232.742 166.939 235.259 167.481C241.375 168.798 246.687 173.337 247.832 178.771Z" fill="url(#paint60_linear_44_203)"/>
<path d="M248.68 188.179C241.375 185.545 239.506 182.534 237.128 177.265C239.165 176.889 240.645 177.242 242.904 178.582C247.662 181.405 248.171 184.416 248.68 188.179Z" fill="url(#paint61_linear_44_203)"/>
<path d="M250.89 198.34C252.079 195.518 251.909 190.813 250.04 187.615C249.191 189.873 247.972 193.721 250.89 198.34Z" fill="#363636"/>
<path d="M243.753 187.615C245.147 191.621 246.025 193.697 250.89 198.34C249.532 191.378 247.356 190.634 243.753 187.615Z" fill="#929291"/>
<path d="M245.282 194.765C243.541 197.03 243.67 199.093 245.622 203.985C245.963 200.034 247.662 196.27 245.282 194.765Z" fill="#929291"/>
<path d="M230.841 213.017C236.107 209.818 241.884 207.372 243.413 203.609C238.826 204.55 234.399 208.596 230.841 213.017Z" fill="#989898"/>
<path d="M238.826 212.642C242.704 212.704 247.322 204.55 243.584 203.609C240.354 205.302 238.216 208.929 238.826 212.642Z" fill="#7C7C7C"/>
<path d="M242.055 199.827C240.045 203.024 238.673 204.27 236.107 206.225C237.752 202.366 238.998 200.55 242.904 196.459C243.136 199.104 243.584 201.163 242.223 203.421C241.884 202.103 241.942 201.629 242.055 199.827Z" fill="#68686A"/>
<path d="M243.075 196.082C242.055 191.942 241.544 189.308 240.186 185.921C242.517 188.055 244.093 190.813 244.773 194.389C243.924 193.071 243.753 192.695 243.075 191.566C243.413 193.071 243.584 194.2 243.075 196.082Z" fill="#45444A"/>
<path d="M240.354 185.921C237.976 193.26 237.637 195.518 236.448 203.797C239.655 199.163 244.604 193.824 240.354 185.921Z" fill="#3C3E40"/>
<path d="M205.693 223.555C218.419 222.161 225.248 218.567 237.296 210.947C233.39 214.899 216.567 231.646 205.693 223.555Z" fill="url(#paint62_linear_44_203)"/>
<path d="M242.564 163.905C250.355 163.121 252.854 164.914 255.308 170.491C250.212 167.857 245.176 167.05 242.564 163.905Z" fill="#3D3D3F"/>
<path d="M242.564 163.905C243.753 168.421 248.432 169.01 255.308 170.867C253.439 168.61 245.962 168.015 242.564 163.905Z" fill="#848484"/>
<path d="M255.817 166.352C260.132 171.141 262.536 173.827 268.051 178.583C266.717 172.1 263.909 169.491 255.817 166.352Z" fill="#2A252A"/>
<path d="M255.308 165.975C258.907 171.861 262.784 174.819 268.221 178.771C264.333 174.187 261.572 171.415 255.308 165.975Z" fill="#616063"/>
<path d="M261.255 177.265C262.275 183.475 265.219 195.146 268.901 201.727C270.261 194.577 267.859 183.32 261.255 177.265Z" fill="#2A252A"/>
<path d="M261.255 177.642C262.444 184.604 264.822 195.329 268.901 202.48C267.202 195.329 263.009 185.356 261.255 177.642Z" fill="#616063"/>
<path d="M263.804 197.211C264.313 205.867 265.162 211.888 266.351 219.979C266.351 211.888 265.144 205.479 263.804 197.211Z" fill="#616063"/>
<path d="M250.549 200.786C247.322 212.452 257.177 222.392 248.68 241.43C261.084 225.59 255.478 201.727 250.549 200.786Z" fill="url(#paint63_linear_44_203)"/>
<path d="M250.212 173.314C249.701 179.711 252.249 181.969 258.877 187.803C258.877 175.572 255.817 175.948 250.212 173.314Z" fill="url(#paint64_linear_44_203)"/>
<path d="M257.177 211.324C255.308 194.765 252.929 194.388 250.549 183.851C252.418 184.604 258.219 188.63 260.066 194.765C261.401 199.199 257.091 208.668 257.177 211.324Z" fill="url(#paint65_linear_44_203)"/>
<path d="M225.233 248.204C225.233 248.204 255.987 223.178 248.171 204.173C235.598 217.156 242.223 231.269 225.233 248.204Z" fill="url(#paint66_linear_44_203)"/>
<path d="M215.378 232.775C222.174 225.247 226.422 222.049 237.976 214.522C241.035 217.156 225.573 235.973 215.378 232.775Z" fill="url(#paint67_linear_44_203)"/>
<path d="M216.058 243.313C223.538 236.893 234.918 223.178 234.918 223.178C234.424 224.143 223.884 239.747 216.058 243.313Z" fill="#79787D"/>
<path d="M219.626 241.243C223.355 238.758 228.401 234.134 231.35 229.953C228.96 235.463 223.774 239.77 219.626 241.243Z" fill="#302E33"/>
<path d="M207.902 245.57C211.631 243.085 215.828 240.343 218.777 236.162C215.547 241.807 212.149 243.689 207.902 245.57Z" fill="#302E33"/>
<path d="M199.065 254.415C202.125 251.404 209.091 245.759 214.869 242.559C209.94 247.264 203.315 252.533 199.065 254.415Z" fill="#302E33"/>
<path d="M180.545 254.415C183.604 251.404 202.125 244.818 208.411 238.984C204.333 245.57 184.793 252.533 180.545 254.415Z" fill="#302E33"/>
<path d="M209.431 241.807C212.219 238.853 214.532 237.319 219.116 234.657C215.378 239.361 213.339 239.925 209.431 241.807Z" fill="#7C7C7E"/>
<path d="M184.284 244.064C190.771 238.889 195.478 238.183 202.975 235.785C198.897 249.898 189.551 244.064 184.284 244.064Z" fill="url(#paint68_linear_44_203)"/>
<path d="M192.44 240.112C206.541 227.506 205.352 230.705 217.416 227.507C214.358 237.478 201.446 238.796 192.44 240.112Z" fill="url(#paint69_linear_44_203)"/>
<defs>
<linearGradient id="paint0_linear_44_203" x1="28.5974" y1="29.0011" x2="183.113" y2="355.883" gradientUnits="userSpaceOnUse">
<stop stop-color="#38C782"/>
<stop offset="0.577959" stop-color="#3CBDA5"/>
<stop offset="1" stop-color="#054E61"/>
</linearGradient>
<linearGradient id="paint1_linear_44_203" x1="265.987" y1="294.972" x2="25.2822" y2="115.6" gradientUnits="userSpaceOnUse">
<stop stop-color="#1D2623"/>
<stop offset="1" stop-color="#222222"/>
</linearGradient>
<linearGradient id="paint2_linear_44_203" x1="144.863" y1="47.4296" x2="296.548" y2="153.413" gradientUnits="userSpaceOnUse">
<stop stop-color="#859095"/>
<stop offset="1" stop-color="#212122"/>
</linearGradient>
<linearGradient id="paint3_linear_44_203" x1="150.981" y1="45.781" x2="302.667" y2="151.764" gradientUnits="userSpaceOnUse">
<stop stop-color="#859095"/>
<stop offset="0.448156" stop-color="#B7B7B7"/>
<stop offset="1" stop-color="#212122"/>
</linearGradient>
<linearGradient id="paint4_linear_44_203" x1="175.279" y1="48.3705" x2="303.353" y2="96.8082" gradientUnits="userSpaceOnUse">
<stop stop-color="#D9D9D9"/>
<stop offset="1" stop-color="#A0A1A8"/>
</linearGradient>
<linearGradient id="paint5_linear_44_203" x1="190.74" y1="57.2145" x2="300.321" y2="110.692" gradientUnits="userSpaceOnUse">
<stop stop-color="#38393C"/>
<stop offset="0.465967" stop-color="#4F5253"/>
<stop offset="1" stop-color="#171819"/>
</linearGradient>
<linearGradient id="paint6_linear_44_203" x1="183.774" y1="55.5208" x2="299.98" y2="130.824" gradientUnits="userSpaceOnUse">
<stop stop-color="#5C5C5C"/>
<stop offset="0.426947" stop-color="#BDBEC0"/>
<stop offset="1" stop-color="#1D1D1F"/>
</linearGradient>
<linearGradient id="paint7_linear_44_203" x1="181.735" y1="57.4025" x2="297.943" y2="132.706" gradientUnits="userSpaceOnUse">
<stop stop-color="#5C5C5C"/>
<stop offset="0.426947" stop-color="#BDBEC0"/>
<stop offset="1" stop-color="#1D1D1F"/>
</linearGradient>
<linearGradient id="paint8_linear_44_203" x1="179.356" y1="60.0369" x2="295.564" y2="135.34" gradientUnits="userSpaceOnUse">
<stop stop-color="#5C5C5C"/>
<stop offset="0.507888" stop-color="#72727E"/>
<stop offset="1" stop-color="#1D1D1F"/>
</linearGradient>
<linearGradient id="paint9_linear_44_203" x1="181.51" y1="63.8557" x2="294.788" y2="144.531" gradientUnits="userSpaceOnUse">
<stop stop-color="#5C5C5C"/>
<stop offset="0.507888" stop-color="#72727E"/>
<stop offset="1" stop-color="#1D1D1F"/>
</linearGradient>
<linearGradient id="paint10_linear_44_203" x1="181.354" y1="67.2427" x2="294.632" y2="147.918" gradientUnits="userSpaceOnUse">
<stop stop-color="#5C5C5C"/>
<stop offset="0.507888" stop-color="#72727E"/>
<stop offset="1" stop-color="#1D1D1F"/>
</linearGradient>
<linearGradient id="paint11_linear_44_203" x1="194.138" y1="95.7888" x2="180.357" y2="146.126" gradientUnits="userSpaceOnUse">
<stop stop-color="#101012"/>
<stop offset="0.438909" stop-color="white"/>
<stop offset="1" stop-color="#242426"/>
</linearGradient>
<linearGradient id="paint12_linear_44_203" x1="79.7869" y1="159.766" x2="95.7819" y2="170.434" gradientUnits="userSpaceOnUse">
<stop stop-color="#121214"/>
<stop offset="1" stop-color="#4E4D50"/>
</linearGradient>
<linearGradient id="paint13_linear_44_203" x1="87.773" y1="151.863" x2="103.767" y2="162.531" gradientUnits="userSpaceOnUse">
<stop stop-color="#121214"/>
<stop offset="1" stop-color="#4E4D50"/>
</linearGradient>
<linearGradient id="paint14_linear_44_203" x1="66.3637" y1="106.138" x2="120.014" y2="147.759" gradientUnits="userSpaceOnUse">
<stop stop-color="#25262C"/>
<stop offset="1" stop-color="#F2F7F5"/>
</linearGradient>
<linearGradient id="paint15_linear_44_203" x1="57.3613" y1="73.0205" x2="57.3613" y2="278.998" gradientUnits="userSpaceOnUse">
<stop stop-color="#E3E6DF"/>
<stop offset="1" stop-color="#414044"/>
</linearGradient>
<linearGradient id="paint16_linear_44_203" x1="46.6336" y1="96.1652" x2="47.4918" y2="235.032" gradientUnits="userSpaceOnUse">
<stop stop-color="#65676A"/>
<stop offset="1" stop-color="#19191B"/>
</linearGradient>
<linearGradient id="paint17_linear_44_203" x1="41.0322" y1="92.4016" x2="41.8903" y2="231.268" gradientUnits="userSpaceOnUse">
<stop stop-color="#65676A"/>
<stop offset="1" stop-color="#19191B"/>
</linearGradient>
<linearGradient id="paint18_linear_44_203" x1="122.265" y1="186.674" x2="111.365" y2="226.23" gradientUnits="userSpaceOnUse">
<stop stop-color="#0D0D0D"/>
<stop offset="1" stop-color="#1B1B1D"/>
</linearGradient>
<linearGradient id="paint19_linear_44_203" x1="117.848" y1="92.2136" x2="143.814" y2="84.3979" gradientUnits="userSpaceOnUse">
<stop stop-color="#2A2A2C"/>
<stop offset="1" stop-color="#ACAFAE"/>
</linearGradient>
<linearGradient id="paint20_linear_44_203" x1="137.728" y1="72.644" x2="114.316" y2="85.3926" gradientUnits="userSpaceOnUse">
<stop stop-color="white"/>
<stop offset="1" stop-color="#141416"/>
</linearGradient>
<linearGradient id="paint21_linear_44_203" x1="138.407" y1="74.9022" x2="114.996" y2="87.6509" gradientUnits="userSpaceOnUse">
<stop stop-color="white"/>
<stop offset="1" stop-color="#141416"/>
</linearGradient>
<linearGradient id="paint22_linear_44_203" x1="145.204" y1="81.8637" x2="123.497" y2="184.539" gradientUnits="userSpaceOnUse">
<stop stop-color="#717373"/>
<stop offset="0.306226" stop-color="#272727"/>
<stop offset="0.78422" stop-color="#272727"/>
<stop offset="1" stop-color="#717373"/>
</linearGradient>
<linearGradient id="paint23_linear_44_203" x1="154.21" y1="124.202" x2="92.7015" y2="201.669" gradientUnits="userSpaceOnUse">
<stop stop-color="#101012"/>
<stop offset="0.48848" stop-color="#4C4A4E"/>
<stop offset="0.81523" stop-color="#2D2C31"/>
<stop offset="1" stop-color="#282828"/>
</linearGradient>
<linearGradient id="paint24_linear_44_203" x1="131.101" y1="129.659" x2="88.6295" y2="190.277" gradientUnits="userSpaceOnUse">
<stop stop-color="#B3B3B3"/>
<stop offset="0.476442" stop-color="white"/>
<stop offset="1" stop-color="#CFCFCF"/>
</linearGradient>
<linearGradient id="paint25_linear_44_203" x1="133.928" y1="190.624" x2="146.497" y2="192.566" gradientUnits="userSpaceOnUse">
<stop stop-color="#5D5D60"/>
<stop offset="1" stop-color="#101012"/>
</linearGradient>
<linearGradient id="paint26_linear_44_203" x1="138.237" y1="197.211" x2="147.602" y2="204.175" gradientUnits="userSpaceOnUse">
<stop stop-color="#5D5D60"/>
<stop offset="1" stop-color="#101012"/>
</linearGradient>
<linearGradient id="paint27_linear_44_203" x1="152" y1="175.007" x2="152" y2="201.727" gradientUnits="userSpaceOnUse">
<stop stop-color="#686868"/>
<stop offset="1" stop-color="#121214"/>
</linearGradient>
<linearGradient id="paint28_linear_44_203" x1="159.986" y1="177.83" x2="144.691" y2="189.645" gradientUnits="userSpaceOnUse">
<stop stop-color="#646668"/>
<stop offset="1" stop-color="#353537"/>
</linearGradient>
<linearGradient id="paint29_linear_44_203" x1="148.772" y1="190.814" x2="151.769" y2="196.407" gradientUnits="userSpaceOnUse">
<stop stop-color="#2E2D30"/>
<stop offset="1" stop-color="#0E0D0E"/>
</linearGradient>
<linearGradient id="paint30_linear_44_203" x1="180.886" y1="175.196" x2="161.903" y2="187.113" gradientUnits="userSpaceOnUse">
<stop stop-color="#656467"/>
<stop offset="1" stop-color="#171415"/>
</linearGradient>
<linearGradient id="paint31_linear_44_203" x1="168.475" y1="172.711" x2="196.213" y2="170.592" gradientUnits="userSpaceOnUse">
<stop stop-color="white"/>
<stop offset="1" stop-color="#272727"/>
</linearGradient>
<linearGradient id="paint32_linear_44_203" x1="84.7139" y1="109.901" x2="73.0119" y2="149.574" gradientUnits="userSpaceOnUse">
<stop stop-color="#0C0B0E"/>
<stop offset="1" stop-color="#232526"/>
</linearGradient>
<linearGradient id="paint33_linear_44_203" x1="100.347" y1="127.213" x2="75.7928" y2="148.041" gradientUnits="userSpaceOnUse">
<stop stop-color="#2F2F31"/>
<stop offset="0.475962" stop-color="#9A9899"/>
<stop offset="1" stop-color="#37363C"/>
</linearGradient>
<linearGradient id="paint34_linear_44_203" x1="76.3885" y1="126.272" x2="71.2772" y2="141.41" gradientUnits="userSpaceOnUse">
<stop stop-color="white"/>
<stop offset="1" stop-color="#78797C"/>
</linearGradient>
<linearGradient id="paint35_linear_44_203" x1="77.5935" y1="126.648" x2="72.4825" y2="141.786" gradientUnits="userSpaceOnUse">
<stop stop-color="#D7D7D7"/>
<stop offset="1" stop-color="#78797C"/>
</linearGradient>
<linearGradient id="paint36_linear_44_203" x1="78.2882" y1="128.718" x2="73.1768" y2="143.856" gradientUnits="userSpaceOnUse">
<stop stop-color="#D7D7D7"/>
<stop offset="1" stop-color="#78797C"/>
</linearGradient>
<linearGradient id="paint37_linear_44_203" x1="76.0486" y1="136.621" x2="72.0422" y2="144.4" gradientUnits="userSpaceOnUse">
<stop stop-color="#D7D7D7"/>
<stop offset="0.719392" stop-color="white"/>
<stop offset="1" stop-color="#78797C"/>
</linearGradient>
<linearGradient id="paint38_linear_44_203" x1="91.8508" y1="124.202" x2="76.8679" y2="144.232" gradientUnits="userSpaceOnUse">
<stop stop-color="#6B6769"/>
<stop offset="1" stop-color="#171719"/>
</linearGradient>
<linearGradient id="paint39_linear_44_203" x1="126.173" y1="84.3106" x2="85.806" y2="118.578" gradientUnits="userSpaceOnUse">
<stop stop-color="white"/>
<stop offset="1" stop-color="#4D4649"/>
</linearGradient>
<linearGradient id="paint40_linear_44_203" x1="80.9761" y1="127.777" x2="77.4715" y2="141.926" gradientUnits="userSpaceOnUse">
<stop stop-color="#282627"/>
<stop offset="0.513554" stop-color="#AEAEAE"/>
<stop offset="1" stop-color="#232526"/>
</linearGradient>
<linearGradient id="paint41_linear_44_203" x1="132.12" y1="101.246" x2="112.553" y2="107.187" gradientUnits="userSpaceOnUse">
<stop stop-color="white"/>
<stop offset="1" stop-color="#1D1A1B"/>
</linearGradient>
<linearGradient id="paint42_linear_44_203" x1="126.173" y1="104.821" x2="100.302" y2="113.288" gradientUnits="userSpaceOnUse">
<stop stop-color="white"/>
<stop offset="1" stop-color="#2B292A"/>
</linearGradient>
<linearGradient id="paint43_linear_44_203" x1="116.828" y1="112.536" x2="98.3931" y2="118.817" gradientUnits="userSpaceOnUse">
<stop stop-color="#5D5D60"/>
<stop offset="1" stop-color="#110E12"/>
</linearGradient>
<linearGradient id="paint44_linear_44_203" x1="133.65" y1="101.998" x2="101.834" y2="115.49" gradientUnits="userSpaceOnUse">
<stop stop-color="#27292A"/>
<stop offset="0.473441" stop-color="#555557"/>
<stop offset="1" stop-color="#161317"/>
</linearGradient>
<linearGradient id="paint45_linear_44_203" x1="102.215" y1="119.498" x2="118.472" y2="122.434" gradientUnits="userSpaceOnUse">
<stop stop-color="#181519"/>
<stop offset="1" stop-color="#3F3F3F"/>
</linearGradient>
<linearGradient id="paint46_linear_44_203" x1="198.709" y1="155.935" x2="198.122" y2="164.759" gradientUnits="userSpaceOnUse">
<stop offset="0.328327" stop-color="#575455"/>
<stop offset="1" stop-color="#101012"/>
</linearGradient>
<linearGradient id="paint47_linear_44_203" x1="179.866" y1="160.33" x2="179.751" y2="167.291" gradientUnits="userSpaceOnUse">
<stop offset="0.328327" stop-color="#575455"/>
<stop offset="1" stop-color="#101012"/>
</linearGradient>
<linearGradient id="paint48_linear_44_203" x1="196.858" y1="149.605" x2="196.442" y2="157.504" gradientUnits="userSpaceOnUse">
<stop offset="0.328327" stop-color="#575455"/>
<stop offset="1" stop-color="#101012"/>
</linearGradient>
<linearGradient id="paint49_linear_44_203" x1="204.593" y1="149.013" x2="204.235" y2="157.297" gradientUnits="userSpaceOnUse">
<stop offset="0.328327" stop-color="#575455"/>
<stop offset="1" stop-color="#101012"/>
</linearGradient>
<linearGradient id="paint50_linear_44_203" x1="210.671" y1="147.32" x2="210.33" y2="155.604" gradientUnits="userSpaceOnUse">
<stop offset="0.328327" stop-color="#575455"/>
<stop offset="1" stop-color="#101012"/>
</linearGradient>
<linearGradient id="paint51_linear_44_203" x1="206.977" y1="145.492" x2="206.592" y2="153.016" gradientUnits="userSpaceOnUse">
<stop offset="0.328327" stop-color="#575455"/>
<stop offset="1" stop-color="#101012"/>
</linearGradient>
<linearGradient id="paint52_linear_44_203" x1="190.74" y1="228.071" x2="203.068" y2="230.39" gradientUnits="userSpaceOnUse">
<stop stop-color="white"/>
<stop offset="1" stop-color="#3D4453"/>
</linearGradient>
<linearGradient id="paint53_linear_44_203" x1="182.924" y1="230.705" x2="190.724" y2="238.95" gradientUnits="userSpaceOnUse">
<stop stop-color="#E5E4E4"/>
<stop offset="1" stop-color="#2A3133"/>
</linearGradient>
<linearGradient id="paint54_linear_44_203" x1="175.448" y1="228.071" x2="188.869" y2="231.333" gradientUnits="userSpaceOnUse">
<stop stop-color="#FCFBFF"/>
<stop offset="1" stop-color="#505153"/>
</linearGradient>
<linearGradient id="paint55_linear_44_203" x1="211.131" y1="169.927" x2="225.039" y2="185.002" gradientUnits="userSpaceOnUse">
<stop stop-color="#333335"/>
<stop offset="1" stop-color="#101012"/>
</linearGradient>
<linearGradient id="paint56_linear_44_203" x1="220.345" y1="172.286" x2="230.816" y2="187.161" gradientUnits="userSpaceOnUse">
<stop stop-color="#3C3C3E"/>
<stop offset="1" stop-color="#101012"/>
</linearGradient>
<linearGradient id="paint57_linear_44_203" x1="232.002" y1="176.793" x2="236.277" y2="195.542" gradientUnits="userSpaceOnUse">
<stop stop-color="#3D3D3F"/>
<stop offset="1" stop-color="#101012"/>
</linearGradient>
<linearGradient id="paint58_linear_44_203" x1="189.551" y1="162.776" x2="185.625" y2="169.76" gradientUnits="userSpaceOnUse">
<stop stop-color="#605D5E"/>
<stop offset="1" stop-color="#101012"/>
</linearGradient>
<linearGradient id="paint59_linear_44_203" x1="207.986" y1="160.572" x2="204.555" y2="168.113" gradientUnits="userSpaceOnUse">
<stop stop-color="#605D5E"/>
<stop offset="1" stop-color="#101012"/>
</linearGradient>
<linearGradient id="paint60_linear_44_203" x1="235.599" y1="168.798" x2="239.049" y2="177.416" gradientUnits="userSpaceOnUse">
<stop stop-color="#636363"/>
<stop offset="1" stop-color="#C9C9C9"/>
</linearGradient>
<linearGradient id="paint61_linear_44_203" x1="241.884" y1="178.018" x2="242.093" y2="184.79" gradientUnits="userSpaceOnUse">
<stop stop-color="#737373"/>
<stop offset="1" stop-color="#C9C9C9"/>
</linearGradient>
<linearGradient id="paint62_linear_44_203" x1="221.495" y1="225.814" x2="209.848" y2="221.888" gradientUnits="userSpaceOnUse">
<stop stop-color="#686365"/>
<stop offset="1" stop-color="#F1F1F1"/>
</linearGradient>
<linearGradient id="paint63_linear_44_203" x1="252.418" y1="205.302" x2="245.996" y2="241.413" gradientUnits="userSpaceOnUse">
<stop stop-color="#575757"/>
<stop offset="1" stop-color="#1E1D1F"/>
</linearGradient>
<linearGradient id="paint64_linear_44_203" x1="256.497" y1="177.077" x2="252.814" y2="181.804" gradientUnits="userSpaceOnUse">
<stop stop-color="#2A2A2C"/>
<stop offset="1" stop-color="#AFADB1"/>
</linearGradient>
<linearGradient id="paint65_linear_44_203" x1="259.386" y1="196.646" x2="253.117" y2="198.848" gradientUnits="userSpaceOnUse">
<stop stop-color="#2A252A"/>
<stop offset="1" stop-color="#6E6E6E"/>
</linearGradient>
<linearGradient id="paint66_linear_44_203" x1="245.963" y1="209.066" x2="234.284" y2="249.031" gradientUnits="userSpaceOnUse">
<stop stop-color="#575757"/>
<stop offset="1" stop-color="#1E1D1F"/>
</linearGradient>
<linearGradient id="paint67_linear_44_203" x1="215.378" y1="228.823" x2="237.053" y2="225.741" gradientUnits="userSpaceOnUse">
<stop stop-color="#DBD8D9"/>
<stop offset="1" stop-color="#33373A"/>
</linearGradient>
<linearGradient id="paint68_linear_44_203" x1="196.518" y1="238.984" x2="196.518" y2="242.559" gradientUnits="userSpaceOnUse">
<stop stop-color="#060606"/>
<stop offset="1" stop-color="#46454A"/>
</linearGradient>
<linearGradient id="paint69_linear_44_203" x1="200.766" y1="232.21" x2="208.194" y2="238.414" gradientUnits="userSpaceOnUse">
<stop stop-color="#DBD8D9"/>
<stop offset="1" stop-color="#33373A"/>
</linearGradient>
</defs>
</svg>
